<?xml version="1.0" encoding="utf-8"?>
<!-- Generator: Adobe Illustrator 23.0.6, SVG Export Plug-In . SVG Version: 6.00 Build 0)  -->
<svg version="1.1" id="Слой_1" xmlns="http://www.w3.org/2000/svg" xmlns:xlink="http://www.w3.org/1999/xlink" x="0px" y="0px"
	 viewBox="0 0 72 72" style="enable-background:new 0 0 72 72;" xml:space="preserve">
<style type="text/css">
	.st0{fill:#FFFFFF;stroke:#000000;stroke-miterlimit:10;}
</style>
<path class="st0" d="M36,1C16.67,1,1,16.67,1,36s15.67,35,35,35s35-15.67,35-35S55.33,1,36,1z M35.86,53.68
	c-9.97,0-17.35-8.15-17.78-17.78c-0.43-9.6,8.48-17.78,17.78-17.78c9.97,0,17.35,8.15,17.78,17.78
	C54.07,45.5,45.16,53.68,35.86,53.68z"/>
<g>
	<path id="svg_5" d="M36.17,5.66c-0.1-0.1-0.24-0.1-0.34,0l-5.73,5.99c-0.12,0.13-0.12,0.33,0,0.45s0.32,0.13,0.43,0L36,6.39
		l5.47,5.72c0.12,0.13,0.32,0.13,0.43,0s0.12-0.33,0-0.45L36.17,5.66z"/>
	<path id="svg_6" d="M30.53,9.3L36,3.59l5.47,5.72c0.12,0.13,0.32,0.13,0.43,0c0.11-0.13,0.12-0.33,0-0.45l-5.73-5.99
		c-0.1-0.1-0.24-0.1-0.34,0l-5.73,5.99c-0.12,0.13-0.12,0.33,0,0.45C30.23,9.43,30.41,9.43,30.53,9.3z"/>
</g>
<g>
	<path id="svg_5_1_" d="M35.83,66.37c0.1,0.1,0.24,0.1,0.34,0l5.73-5.99c0.12-0.13,0.12-0.33,0-0.45c-0.12-0.11-0.32-0.13-0.43,0
		L36,65.64l-5.47-5.72c-0.12-0.13-0.32-0.13-0.43,0c-0.11,0.13-0.12,0.33,0,0.45L35.83,66.37z"/>
	<path id="svg_6_1_" d="M41.47,62.73L36,68.45l-5.47-5.72c-0.12-0.13-0.32-0.13-0.43,0c-0.11,0.13-0.12,0.33,0,0.45l5.73,5.99
		c0.1,0.1,0.24,0.1,0.34,0l5.73-5.99c0.12-0.13,0.12-0.33,0-0.45C41.77,62.6,41.59,62.6,41.47,62.73z"/>
</g>
</svg>
