<svg width="40" height="30" xmlns="http://www.w3.org/2000/svg" xmlns:svg="http://www.w3.org/2000/svg">
 <g class="layer">
  <title>Layer 1</title>
  <g stroke="null" id="svg_1">
   <path stroke="null" fill="black" id="svg_5" d="m19.4391,20.66887c0.31633,0.32264 0.79083,0.32264 1.10716,0l18.54487,-18.91454c0.39542,-0.4033 0.39542,-1.04857 0,-1.41153c-0.39542,-0.36297 -1.02807,-0.4033 -1.38394,0l-17.7145,18.02729l-17.7145,-18.06762c-0.39542,-0.4033 -1.02807,-0.4033 -1.38394,0c-0.35587,0.4033 -0.39542,1.04857 0,1.41153l18.54487,18.95487z"/>
   <path stroke="null" fill="black" id="svg_6" d="m37.70718,9.17023l-17.7145,18.06762l-17.7145,-18.06762c-0.39542,-0.4033 -1.02807,-0.4033 -1.38394,0c-0.35587,0.4033 -0.39542,1.04857 0,1.41153l18.54487,18.91454c0.31633,0.32264 0.79083,0.32264 1.10716,0l18.54487,-18.91454c0.39542,-0.4033 0.39542,-1.04857 0,-1.41153c-0.39542,-0.4033 -0.98853,-0.4033 -1.38394,0z"/>
  </g>
 </g>
</svg>
