<svg width="192.756" height="120" xmlns="http://www.w3.org/2000/svg" xmlns:svg="http://www.w3.org/2000/svg">
 <g>
  <title>Layer 1</title>
  <path id="svg_3" fill="#2d509f" d="m132.49651,32.673s-0.043,4.601 -1.564,8.786c-1.449,3.984 -4.625,8.927 -9.045,13.151c-6.309,6.032 -13.691,11.345 -18.389,14.085s-12.29,6.374 -15.226,7.353c-2.828,0.942 -9.835,2.716 -13.896,1.957c-5.254,-0.98 -5.48,-4.893 -3.914,-10.178c1.565,-5.284 10.96,-37.97 10.96,-37.97c-35.929,2.64 -62.397,14.869 -62.397,29.79c0,16.843 34.631,30.496 77.353,30.496c42.72,0 77.353,-13.653 77.353,-30.496c-0.001,-11.698 -16.712,-21.858 -41.235,-26.974zm-11.541,42.268s-4.781,-0.025 -6.887,0.046c-1.994,0.067 -0.471,1.714 2.904,3.65c1.906,1.095 1.906,2.785 1.637,3.87c-0.242,0.968 -2.229,2.121 -4.381,2.512c-2.119,0.386 -7.799,0.901 -10.932,1.098c-3.131,0.195 -9.804,0.199 -13.523,0.199s-9.791,-0.596 -13.509,-0.987c-3.36,-0.354 -10.432,-1.526 -10.432,-1.526l0.836,-3.185s2.573,0.632 7.075,1.219c4.501,0.587 8.94,0.806 15.986,0.871c5.685,0.053 11.131,-1.315 13.417,-2.744c1.936,-1.211 1.949,-2.963 0.588,-3.915c-2.035,-1.424 -3.293,-1.557 -2.936,-2.936c0.471,-1.831 2.422,-2.323 4.697,-2.349c2.936,-0.033 15.467,-0.012 15.467,-0.012l-0.007,4.189z"/>
  <path id="svg_4" fill="#2d509f" d="m96.3775,21.14c-51.663,0 -93.543,17.398 -93.543,38.86s41.88,38.86 93.543,38.86s93.544,-17.398 93.544,-38.86s-41.881,-38.86 -93.544,-38.86zm0.007,74.123c-49.562,0 -89.739,-15.784 -89.739,-35.255c0,-18.249 35.35,-33.244 80.607,-35.056c-0.921,3.039 -9.481,32.866 -11.164,38.488c-2.512,8.392 -0.006,9.665 5.34,5.896c4.788,-3.376 8.822,-7.157 12.554,-11.925c3.81,-4.866 6.13,-9.679 6.851,-13.114c0.811,-3.859 0.533,-8.673 -1.443,-13.248c-1.055,-2.446 -2.585,-5.407 -3.038,-6.279c49.579,0 89.77,15.767 89.77,35.237s-40.176,35.256 -89.738,35.256z"/>
 </g>
</svg>
