<svg width="199.99999999999997" height="70" xmlns="http://www.w3.org/2000/svg" xmlns:svg="http://www.w3.org/2000/svg">
 <style type="text/css">.st0{fill:#FFFFFF;stroke:#000000;stroke-width:3;stroke-miterlimit:10;}
	.st1{fill:none;stroke:#000000;stroke-miterlimit:10;}</style>
 <g>
  <title>Layer 1</title>
  <path fill="black" id="svg_1" d="m100.00721,1.33251c-54.17645,0 -98.10017,29.91085 -98.10017,66.80633l52.05668,0.14233c-0.07211,-7.77255 5.70316,-16.44996 13.30978,-21.81296c5.14799,-3.62956 11.86056,-6.38987 19.02015,-7.94539c4.52071,-1.0421 9.2361,-1.61653 13.86496,-1.61653c12.30038,0 23.21642,3.62448 32.09922,9.37383c8.77465,5.67818 12.63925,14.08616 13.25931,22.24505l52.57581,0.14233c0,-0.17792 0,-0.35076 0,-0.52868c0.00721,-36.89548 -43.9093,-66.80633 -98.08575,-66.80633l0,0.00001l0,0.00001z" class="st0"/>
  <g stroke="null" id="svg_4">
   <path stroke="null" d="m100.47749,15.43185c-0.27252,-0.24416 -0.67606,-0.24416 -0.94333,0l-15.8322,14.28304c-0.33541,0.30294 -0.33541,0.79124 0,1.06704c0.33541,0.2758 0.8752,0.30294 1.17916,0l15.1247,-13.61387l15.1247,13.64552c0.33541,0.30294 0.8752,0.30294 1.17916,0c0.30396,-0.30294 0.33541,-0.79124 0,-1.06704c0,0 -15.8322,-14.31468 -15.8322,-14.31468z" id="svg_5"/>
   <path stroke="null" d="m84.87588,24.11742l15.1247,-13.64552l15.1247,13.64552c0.33541,0.30294 0.8752,0.30294 1.17916,0c0.30396,-0.30294 0.33541,-0.79124 0,-1.06704l-15.82696,-14.28304c-0.27252,-0.24416 -0.67606,-0.24416 -0.94333,0l-15.8322,14.28304c-0.33541,0.30294 -0.33541,0.79124 0,1.06704c0.33016,0.30294 0.83851,0.30294 1.17392,0z" id="svg_6"/>
  </g>
 </g>
</svg>
