<?xml version="1.0" encoding="utf-8"?>
<!-- Generator: Adobe Illustrator 23.0.6, SVG Export Plug-In . SVG Version: 6.00 Build 0)  -->
<svg version="1.1" id="Слой_1" xmlns="http://www.w3.org/2000/svg" xmlns:xlink="http://www.w3.org/1999/xlink" x="0px" y="0px"
	 viewBox="0 0 273.11 132.97" style="enable-background:new 0 0 273.11 132.97;" xml:space="preserve">
<style type="text/css">
	.st0{fill:#FFFFFF;stroke:#000000;stroke-width:3;stroke-miterlimit:10;}
	.st1{fill:none;stroke:#000000;stroke-miterlimit:10;}
</style>
<path class="st0" d="M136.41,0.5C61.27,0.5,0.35,59.34,0.35,131.92l72.2,0.28c-0.1-15.29,7.91-32.36,18.46-42.91
	c7.14-7.14,16.45-12.57,26.38-15.63c6.27-2.05,12.81-3.18,19.23-3.18c17.06,0,32.2,7.13,44.52,18.44
	c12.17,11.17,17.53,27.71,18.39,43.76l72.92,0.28c0-0.35,0-0.69,0-1.04C272.46,59.34,211.55,0.5,136.41,0.5z"/>
<path class="st0" d="M91.16,89.29c7.14-7.14,16.45-12.57,26.38-15.63c6.27-2.05,12.81-3.18,19.23-3.18c15.63,0,29.64,6,41.35,15.69
	c-11.11-9.85-25.81-15.85-41.95-15.85c-25.2,0-46.92,14.64-56.86,35.74C82.48,99.69,86.58,93.87,91.16,89.29z"/>
<path class="st1" d="M71.5,132.23c-23.83-0.47-47.67-0.46-71.5,0.03"/>
<g>
	<path id="svg_5" d="M137.5,21.46c-0.52-0.54-1.29-0.54-1.8,0l-30.21,31.59c-0.64,0.67-0.64,1.75,0,2.36c0.64,0.61,1.67,0.67,2.25,0
		l28.86-30.11l28.86,30.18c0.64,0.67,1.67,0.67,2.25,0c0.58-0.67,0.64-1.75,0-2.36C167.71,53.12,137.5,21.46,137.5,21.46z"/>
	<path id="svg_6" d="M107.73,40.67l28.86-30.18l28.86,30.18c0.64,0.67,1.67,0.67,2.25,0c0.58-0.67,0.64-1.75,0-2.36L137.5,6.72
		c-0.52-0.54-1.29-0.54-1.8,0l-30.21,31.59c-0.64,0.67-0.64,1.75,0,2.36C106.12,41.34,107.09,41.34,107.73,40.67z"/>
</g>
</svg>
