<svg width="124" height="141" xmlns="http://www.w3.org/2000/svg" xmlns:svg="http://www.w3.org/2000/svg">
 <g class="layer">
  <title>Layer 1</title>
  <rect id="svg_2" fill="#ffffff" height="140" width="115.7095" y="1" x="6.29051"/>
  <path stroke="#000000" id="svg_4" stroke-miterlimit="10" fill="none" d="m0.36509,141l51.36243,0q10.27249,0 20.54497,0l51.36243,0"/>
  <path fill="black" id="svg_5" d="m63.35648,33.93056c-0.76502,-0.8 -1.91255,-0.8 -2.67758,0l-44.84938,46.9c-0.95628,1 -0.95628,2.6 0,3.5c0.95628,0.9 2.48632,1 3.34697,0l42.8412,-44.7l42.8412,44.8c0.95628,1 2.48632,1 3.34697,0c0.86065,-1 0.95628,-2.6 0,-3.5l-44.84938,-47z"/>
  <path fill="black" id="svg_6" d="m19.1765,62.44228l42.8412,-44.8l42.8412,44.8c0.95628,1 2.48632,1 3.34697,0c0.86065,-1 0.95628,-2.6 0,-3.5l-44.84938,-46.9c-0.76502,-0.8 -1.91255,-0.8 -2.67758,0l-44.84938,46.9c-0.95628,1 -0.95628,2.6 0,3.5c0.95628,1 2.39069,1 3.34697,0z"/>
  <path stroke="#000000" id="svg_3" stroke-miterlimit="10" stroke-width="2" fill="none" d="m1.2185,141l0,-130.10164q0,-9.94915 10.0596,-9.94915l101.602,0q10.0596,0 10.0596,9.94915l0,130.28816"/>
 </g>
</svg>